<svg width="13" height="14" viewBox="0 0 13 14" fill="none" xmlns="http://www.w3.org/2000/svg">
<path d="M5.89844 2.07417C6.08984 2.23823 6.08984 2.51167 5.92578 2.67573L2.26172 6.74995L5.92578 10.8242C6.08984 10.9882 6.08984 11.289 5.89844 11.4531C5.73438 11.5898 5.46094 11.5898 5.29688 11.3984L1.35938 7.05073C1.19531 6.88667 1.19531 6.64058 1.35938 6.47652L5.29688 2.10152C5.46094 1.91011 5.73438 1.91011 5.89844 2.07417ZM7.51172 6.74995L11.1758 10.7968C11.3398 10.9882 11.3398 11.2617 11.1484 11.4257C10.9844 11.5898 10.7109 11.5625 10.5469 11.371L6.60938 7.02339C6.44531 6.85933 6.44531 6.61323 6.60938 6.44917L10.5469 2.10152C10.7109 1.91011 10.9844 1.91011 11.1484 2.07417C11.3398 2.23823 11.3398 2.51167 11.1758 2.67573L7.51172 6.74995Z" fill="black"/>
</svg>
