<svg width="14" height="16" viewBox="0 0 14 16" fill="none" xmlns="http://www.w3.org/2000/svg">
<path d="M6.65625 12.125C6.9375 12.4375 6.90625 12.9375 6.59375 13.1562C6.25 13.4375 5.8125 13.4062 5.53125 13.125L1.3125 8.375C1.03125 8.0625 1.03125 7.65625 1.3125 7.375L5.5625 2.625C5.8125 2.34375 6.3125 2.3125 6.625 2.59375C6.78125 2.71875 6.84375 2.9375 6.84375 3.125C6.84375 3.3125 6.78125 3.5 6.65625 3.625L2.875 7.875L6.65625 12.125ZM7.3125 7.375L11.5625 2.625C11.8438 2.34375 12.3125 2.3125 12.625 2.59375C12.7812 2.71875 12.8438 2.9375 12.8438 3.125C12.8438 3.3125 12.7812 3.5 12.6562 3.625L8.875 7.875L12.625 12.125C12.9062 12.4062 12.875 12.9062 12.5938 13.1562C12.25 13.4375 11.8125 13.4062 11.5312 13.125L7.3125 8.375C7.03125 8.0625 7.03125 7.65625 7.3125 7.375Z" fill="black"/>
</svg>
