<svg width="13" height="14" viewBox="0 0 13 14" fill="none" xmlns="http://www.w3.org/2000/svg">
<path d="M2.42647 2.10152L6.36397 6.50386C6.52803 6.66792 6.52803 6.91402 6.36397 7.07808L2.42647 11.4257C2.2624 11.6171 1.98897 11.6171 1.8249 11.4531C1.6335 11.289 1.6335 11.0156 1.79756 10.8515L5.46162 6.74995L1.79756 2.67573C1.6335 2.51167 1.6335 2.23823 1.8249 2.07417C1.98897 1.91011 2.2624 1.91011 2.42647 2.10152ZM11.614 6.47652C11.778 6.64058 11.778 6.88667 11.614 7.07808L7.67647 11.4257C7.5124 11.6171 7.23897 11.6171 7.0749 11.4531C6.8835 11.289 6.8835 11.0156 7.04756 10.8515L10.7116 6.74995L7.04756 2.67573C6.8835 2.51167 6.8835 2.23823 7.0749 2.07417C7.23897 1.91011 7.5124 1.91011 7.67647 2.10152L11.614 6.47652Z" fill="black"/>
</svg>
