<svg width="13" height="14" viewBox="0 0 13 14" fill="none" xmlns="http://www.w3.org/2000/svg">
<path d="M10 6.75C10 6.28516 10.3828 5.875 10.875 5.875C11.3398 5.875 11.75 6.28516 11.75 6.75C11.75 7.24219 11.3398 7.625 10.875 7.625C10.3828 7.625 10 7.24219 10 6.75ZM5.625 6.75C5.625 6.28516 6.00781 5.875 6.5 5.875C6.96484 5.875 7.375 6.28516 7.375 6.75C7.375 7.24219 6.96484 7.625 6.5 7.625C6.00781 7.625 5.625 7.24219 5.625 6.75ZM3 6.75C3 7.24219 2.58984 7.625 2.125 7.625C1.63281 7.625 1.25 7.24219 1.25 6.75C1.25 6.28516 1.63281 5.875 2.125 5.875C2.58984 5.875 3 6.28516 3 6.75Z" fill="black"/>
</svg>
