<svg width="9" height="14" viewBox="0 0 9 14" fill="none" xmlns="http://www.w3.org/2000/svg">
<path d="M8.73828 11.0156C8.57422 11.1797 8.27344 11.1797 8.10938 11.0156L4.5 7.37891L0.863281 11.0156C0.699219 11.1797 0.398438 11.1797 0.234375 11.0156C0.0703125 10.8516 0.0703125 10.5508 0.234375 10.3867L3.87109 6.75L0.234375 3.14062C0.0703125 2.97656 0.0703125 2.67578 0.234375 2.51172C0.398438 2.34766 0.699219 2.34766 0.863281 2.51172L4.5 6.14844L8.10938 2.51172C8.27344 2.34766 8.57422 2.34766 8.73828 2.51172C8.90234 2.67578 8.90234 2.97656 8.73828 3.14062L5.10156 6.75L8.73828 10.3867C8.90234 10.5508 8.90234 10.8516 8.73828 11.0156Z" fill="black"/>
</svg>
