<svg fill="none" viewBox="0 0 15 15" xmlns="http://www.w3.org/2000/svg">
<path d="m14.658 12.59c0.3938 0.4375 0.3938 1.0937 0 1.4875-0.4375 0.4375-1.0937 0.4375-1.4875 0l-5.1625-5.2063-5.2062 5.2063c-0.4375 0.4375-1.0938 0.4375-1.4875 0-0.4375-0.3938-0.4375-1.05 0-1.4875l5.2062-5.2063-5.2062-5.2062c-0.4375-0.4375-0.4375-1.0938 0-1.4875 0.39375-0.4375 1.05-0.4375 1.4438 0l5.25 5.25 5.2063-5.2062c0.3937-0.4375 1.05-0.4375 1.4437 0 0.4375 0.39375 0.4375 1.05 0 1.4875l-5.2062 5.1625 5.2062 5.2063z" fill="#aaa"/>
</svg>
